# xmcd
#
# Track frame offsets:
# 182
# 12560
# 24057
# 39937
# 51620
# 63505
# 74555
# 83297
# 94852
# 105580
# 114237
# 128080
# 140645
# 152927
# 163365
# 178325
# 189545
# 200847
#
# Disc length: 2827 seconds
#
# Revision: 1
# Processed by: cddbd v1.4PL0 Copyright (c) Steve Scherf et al.
# Submitted via: CedeCatalogueitor 2.5 http://usuarios.lycos.es/kakasboy
#
DISCID=020b0912
DTITLE=Sam Cooke - You Send Me
DYEAR=1900
DGENRE=
TTITLE0=You Send Me
TTITLE1=The Lonesome Road
TTITLE2=Tammy
TTITLE3=Ol' Man River
TTITLE4=Moonlight In Vermont
TTITLE5=Summertime
TTITLE6=Around The World
TTITLE7=So Long
TTITLE8=That Lucky Old Sun
TTITLE9=Oh, Look Me Know
TTITLE10=Along The Navaho Trail
TTITLE11=Mary, Mary Lou
TTITLE12=When I Fall In Love
TTITLE13=My Foolish Heart
TTITLE14=Today I Sing The Blues
TTITLE15=The Gipsy
TTITLE16=Crazy In Love With You
TTITLE17=I've Got A Right To Sing The Blues
EXTD=
EXTT0=
EXTT1=
EXTT2=
EXTT3=
EXTT4=
EXTT5=
EXTT6=
EXTT7=
EXTT8=
EXTT9=
EXTT10=
EXTT11=
EXTT12=
EXTT13=
EXTT14=
EXTT15=
EXTT16=
EXTT17=
PLAYORDER=
